<svg width="23" height="24" viewBox="0 0 23 24" fill="none" xmlns="http://www.w3.org/2000/svg">
<g clip-path="url(#clip0_1_5019)">
<path d="M21 5.18L9.59 16.6L5.35 12.36L6.76 10.95L9.59 13.78L19.59 3.78L21 5.18ZM18.79 10.22C18.92 10.79 19 11.39 19 12C19 16.42 15.42 20 11 20C6.58 20 3 16.42 3 12C3 7.58 6.58 4 11 4C12.58 4 14.04 4.46 15.28 5.25L16.72 3.81C15.1 2.67 13.13 2 11 2C5.48 2 1 6.48 1 12C1 17.52 5.48 22 11 22C16.52 22 21 17.52 21 12C21 10.81 20.78 9.67 20.4 8.61L18.79 10.22Z" fill="#324156"/>
</g>
<defs>
<clipPath id="clip0_1_5019">
<rect width="23" height="24" fill="white"/>
</clipPath>
</defs>
</svg>
