<svg width="23" height="24" viewBox="0 0 23 24" fill="none" xmlns="http://www.w3.org/2000/svg">
<g clip-path="url(#clip0_1_4968)">
<path d="M12.02 20.93V22.9501C14.03 22.75 15.86 21.9501 17.34 20.74L15.92 19.31C14.81 20.17 13.48 20.75 12.02 20.93Z" fill="#324156"/>
<path d="M3.03003 13C3.03003 8.95005 6.06003 5.59005 9.98003 5.07005V3.05005C4.95003 3.58005 1.03003 7.84005 1.03003 13C1.03003 18.16 4.95003 22.42 9.98003 22.9501V20.93C6.06003 20.41 3.03003 17.05 3.03003 13Z" fill="#324156"/>
<path d="M18.95 12H20.97C20.77 9.99005 19.97 8.16005 18.76 6.68005L17.33 8.11005C18.19 9.21005 18.77 10.54 18.95 12Z" fill="#324156"/>
<path d="M17.34 5.26005C15.86 4.05005 14.02 3.25005 12.02 3.05005V5.07005C13.48 5.25005 14.81 5.83005 15.92 6.69005L17.34 5.26005Z" fill="#324156"/>
<path d="M17.33 17.9L18.76 19.32C19.97 17.84 20.77 16.01 20.97 14H18.95C18.77 15.46 18.19 16.79 17.33 17.9Z" fill="#324156"/>
<path d="M15 12.1C15 9.61005 13.1 8.00005 11 8.00005C8.90003 8.00005 7.00003 9.61005 7.00003 12.1C7.00003 13.76 8.33003 15.73 11 18C13.67 15.73 15 13.76 15 12.1ZM11 13C10.41 13 9.93003 12.52 9.93003 11.93C9.93003 11.34 10.41 10.86 11 10.86C11.59 10.86 12.07 11.34 12.07 11.93C12.07 12.52 11.59 13 11 13Z" fill="#324156"/>
</g>
<defs>
<clipPath id="clip0_1_4968">
<rect width="23" height="24" fill="white"/>
</clipPath>
</defs>
</svg>
