<svg width="23" height="24" viewBox="0 0 23 24" fill="none" xmlns="http://www.w3.org/2000/svg">
<path d="M18.2083 11H4.79167C3.73312 11 2.875 11.8954 2.875 13V20C2.875 21.1046 3.73312 22 4.79167 22H18.2083C19.2669 22 20.125 21.1046 20.125 20V13C20.125 11.8954 19.2669 11 18.2083 11Z" stroke="#A6A6A6" stroke-width="2" stroke-linecap="round" stroke-linejoin="round"/>
<path d="M6.70834 11V7C6.70834 5.67392 7.21317 4.40215 8.11178 3.46447C9.01039 2.52678 10.2292 2 11.5 2C12.7708 2 13.9896 2.52678 14.8882 3.46447C15.7868 4.40215 16.2917 5.67392 16.2917 7V11" stroke="#A6A6A6" stroke-width="2" stroke-linecap="round" stroke-linejoin="round"/>
</svg>
