<svg width="23" height="24" viewBox="0 0 23 24" fill="none" xmlns="http://www.w3.org/2000/svg">
<g clip-path="url(#clip0_1_4994)">
<path d="M17.92 7.01C17.72 6.42 17.16 6 16.5 6H5.5C4.84 6 4.29 6.42 4.08 7.01L2 13V21C2 21.55 2.45 22 3 22H4C4.55 22 5 21.55 5 21V20H17V21C17 21.55 17.45 22 18 22H19C19.55 22 20 21.55 20 21V13L17.92 7.01ZM5.85 8H16.14L17.18 11H4.81L5.85 8ZM18 18H4V13H18V18Z" fill="#324156"/>
<path d="M6.5 17C7.32843 17 8 16.3284 8 15.5C8 14.6716 7.32843 14 6.5 14C5.67157 14 5 14.6716 5 15.5C5 16.3284 5.67157 17 6.5 17Z" fill="#324156"/>
<path d="M15.5 17C16.3284 17 17 16.3284 17 15.5C17 14.6716 16.3284 14 15.5 14C14.6716 14 14 14.6716 14 15.5C14 16.3284 14.6716 17 15.5 17Z" fill="#324156"/>
</g>
<defs>
<clipPath id="clip0_1_4994">
<rect width="23" height="24" fill="white"/>
</clipPath>
</defs>
</svg>
